<mxfile host="65bd71144e" scale="2" border="0">
    <diagram id="0QhtwqMjpmc_AO-MrRb4" name="第 1 页">
        <mxGraphModel dx="1502" dy="863" grid="1" gridSize="10" guides="1" tooltips="1" connect="1" arrows="1" fold="1" page="1" pageScale="1" pageWidth="1654" pageHeight="2336" math="0" shadow="0">
            <root>
                <mxCell id="0"/>
                <mxCell id="1" parent="0"/>
                <mxCell id="244" value="" style="rounded=1;whiteSpace=wrap;html=1;fontFamily=Tahoma;fontSize=12;fontColor=#345253;strokeWidth=2;fillColor=#EDF2F4;strokeColor=none;" parent="1" vertex="1">
                    <mxGeometry x="743" y="185" width="110" height="190" as="geometry"/>
                </mxCell>
                <mxCell id="224" value="" style="rounded=1;whiteSpace=wrap;html=1;fontFamily=Tahoma;fontSize=12;fontColor=#345253;strokeWidth=2;fillColor=#EDF2F4;strokeColor=none;" parent="1" vertex="1">
                    <mxGeometry x="268" y="295" width="110" height="260" as="geometry"/>
                </mxCell>
                <mxCell id="203" value="" style="rounded=1;whiteSpace=wrap;html=1;fontFamily=Tahoma;fontSize=12;fontColor=#345253;strokeWidth=2;fillColor=#EDF2F4;strokeColor=none;" parent="1" vertex="1">
                    <mxGeometry x="268" y="40" width="110" height="190" as="geometry"/>
                </mxCell>
                <mxCell id="192" value="" style="rounded=1;whiteSpace=wrap;html=1;fontFamily=Tahoma;fontSize=12;fontColor=#345253;strokeWidth=2;fillColor=#EDF2F4;strokeColor=none;" parent="1" vertex="1">
                    <mxGeometry x="88" y="40" width="110" height="190" as="geometry"/>
                </mxCell>
                <mxCell id="193" value="&lt;font color=&quot;#ffffff&quot;&gt;Partition 01&lt;/font&gt;" style="rounded=1;whiteSpace=wrap;html=1;fontFamily=Tahoma;fontSize=12;fontColor=#345253;strokeWidth=2;fillColor=#345253;strokeColor=none;" parent="1" vertex="1">
                    <mxGeometry x="103" y="55" width="80" height="40" as="geometry"/>
                </mxCell>
                <mxCell id="194" value="&lt;font color=&quot;#ffffff&quot;&gt;Partition 02&lt;/font&gt;" style="rounded=1;whiteSpace=wrap;html=1;fontFamily=Tahoma;fontSize=12;fontColor=#345253;strokeWidth=2;fillColor=#345253;strokeColor=none;" parent="1" vertex="1">
                    <mxGeometry x="103" y="115" width="80" height="40" as="geometry"/>
                </mxCell>
                <mxCell id="195" value="&lt;font color=&quot;#ffffff&quot;&gt;Partition 03&lt;/font&gt;" style="rounded=1;whiteSpace=wrap;html=1;fontFamily=Tahoma;fontSize=12;fontColor=#345253;strokeWidth=2;fillColor=#345253;strokeColor=none;" parent="1" vertex="1">
                    <mxGeometry x="103" y="175" width="80" height="40" as="geometry"/>
                </mxCell>
                <mxCell id="198" value="&lt;font color=&quot;#ffffff&quot;&gt;Partition 01&lt;/font&gt;" style="rounded=1;whiteSpace=wrap;html=1;fontFamily=Tahoma;fontSize=12;fontColor=#345253;strokeWidth=2;fillColor=#345253;strokeColor=none;" parent="1" vertex="1">
                    <mxGeometry x="283" y="55" width="80" height="40" as="geometry"/>
                </mxCell>
                <mxCell id="199" value="&lt;font color=&quot;#ffffff&quot;&gt;Partition 02&lt;/font&gt;" style="rounded=1;whiteSpace=wrap;html=1;fontFamily=Tahoma;fontSize=12;fontColor=#345253;strokeWidth=2;fillColor=#345253;strokeColor=none;" parent="1" vertex="1">
                    <mxGeometry x="283" y="115" width="80" height="40" as="geometry"/>
                </mxCell>
                <mxCell id="200" value="&lt;font color=&quot;#ffffff&quot;&gt;Partition 03&lt;/font&gt;" style="rounded=1;whiteSpace=wrap;html=1;fontFamily=Tahoma;fontSize=12;fontColor=#345253;strokeWidth=2;fillColor=#345253;strokeColor=none;" parent="1" vertex="1">
                    <mxGeometry x="283" y="175" width="80" height="40" as="geometry"/>
                </mxCell>
                <mxCell id="202" value="map, fliter" style="text;html=1;strokeColor=none;fillColor=none;align=center;verticalAlign=middle;whiteSpace=wrap;rounded=0;fontFamily=Tahoma;fontSize=14;fontColor=#345253;fontStyle=2" parent="1" vertex="1">
                    <mxGeometry x="198" y="235" width="70" height="20" as="geometry"/>
                </mxCell>
                <mxCell id="208" value="" style="rounded=1;whiteSpace=wrap;html=1;fontFamily=Tahoma;fontSize=12;fontColor=#345253;strokeWidth=2;fillColor=#EDF2F4;strokeColor=none;" parent="1" vertex="1">
                    <mxGeometry x="88" y="275" width="110" height="140" as="geometry"/>
                </mxCell>
                <mxCell id="210" value="&lt;font color=&quot;#ffffff&quot;&gt;Partition 01&lt;/font&gt;" style="rounded=1;whiteSpace=wrap;html=1;fontFamily=Tahoma;fontSize=12;fontColor=#345253;strokeWidth=2;fillColor=#345253;strokeColor=none;" parent="1" vertex="1">
                    <mxGeometry x="103" y="295" width="80" height="40" as="geometry"/>
                </mxCell>
                <mxCell id="212" value="&lt;font color=&quot;#ffffff&quot;&gt;Partition 02&lt;/font&gt;" style="rounded=1;whiteSpace=wrap;html=1;fontFamily=Tahoma;fontSize=12;fontColor=#345253;strokeWidth=2;fillColor=#345253;strokeColor=none;" parent="1" vertex="1">
                    <mxGeometry x="103" y="355" width="80" height="40" as="geometry"/>
                </mxCell>
                <mxCell id="221" value="" style="rounded=1;whiteSpace=wrap;html=1;fontFamily=Tahoma;fontSize=12;fontColor=#345253;strokeWidth=2;fillColor=#EDF2F4;strokeColor=none;" parent="1" vertex="1">
                    <mxGeometry x="88" y="435" width="110" height="140" as="geometry"/>
                </mxCell>
                <mxCell id="222" value="&lt;font color=&quot;#ffffff&quot;&gt;Partition 01&lt;/font&gt;" style="rounded=1;whiteSpace=wrap;html=1;fontFamily=Tahoma;fontSize=12;fontColor=#345253;strokeWidth=2;fillColor=#345253;strokeColor=none;" parent="1" vertex="1">
                    <mxGeometry x="103" y="455" width="80" height="40" as="geometry"/>
                </mxCell>
                <mxCell id="223" value="&lt;font color=&quot;#ffffff&quot;&gt;Partition 02&lt;/font&gt;" style="rounded=1;whiteSpace=wrap;html=1;fontFamily=Tahoma;fontSize=12;fontColor=#345253;strokeWidth=2;fillColor=#345253;strokeColor=none;" parent="1" vertex="1">
                    <mxGeometry x="103" y="515" width="80" height="40" as="geometry"/>
                </mxCell>
                <mxCell id="225" value="&lt;font color=&quot;#ffffff&quot;&gt;Partition 01&lt;/font&gt;" style="rounded=1;whiteSpace=wrap;html=1;fontFamily=Tahoma;fontSize=12;fontColor=#345253;strokeWidth=2;fillColor=#345253;strokeColor=none;" parent="1" vertex="1">
                    <mxGeometry x="283" y="315" width="80" height="40" as="geometry"/>
                </mxCell>
                <mxCell id="226" value="&lt;font color=&quot;#ffffff&quot;&gt;Partition 02&lt;/font&gt;" style="rounded=1;whiteSpace=wrap;html=1;fontFamily=Tahoma;fontSize=12;fontColor=#345253;strokeWidth=2;fillColor=#345253;strokeColor=none;" parent="1" vertex="1">
                    <mxGeometry x="283" y="375" width="80" height="40" as="geometry"/>
                </mxCell>
                <mxCell id="227" value="&lt;font color=&quot;#ffffff&quot;&gt;Partition 03&lt;/font&gt;" style="rounded=1;whiteSpace=wrap;html=1;fontFamily=Tahoma;fontSize=12;fontColor=#345253;strokeWidth=2;fillColor=#345253;strokeColor=none;" parent="1" vertex="1">
                    <mxGeometry x="283" y="435" width="80" height="40" as="geometry"/>
                </mxCell>
                <mxCell id="228" value="&lt;font color=&quot;#ffffff&quot;&gt;Partition 04&lt;/font&gt;" style="rounded=1;whiteSpace=wrap;html=1;fontFamily=Tahoma;fontSize=12;fontColor=#345253;strokeWidth=2;fillColor=#345253;strokeColor=none;" parent="1" vertex="1">
                    <mxGeometry x="283" y="495" width="80" height="40" as="geometry"/>
                </mxCell>
                <mxCell id="230" value="union" style="text;html=1;strokeColor=none;fillColor=none;align=center;verticalAlign=middle;whiteSpace=wrap;rounded=0;fontFamily=Tahoma;fontSize=14;fontColor=#345253;fontStyle=2" parent="1" vertex="1">
                    <mxGeometry x="198" y="575" width="70" height="20" as="geometry"/>
                </mxCell>
                <mxCell id="236" value="" style="rounded=1;whiteSpace=wrap;html=1;fontFamily=Tahoma;fontSize=12;fontColor=#345253;strokeWidth=2;fillColor=#EDF2F4;strokeColor=none;" parent="1" vertex="1">
                    <mxGeometry x="563" y="40" width="110" height="190" as="geometry"/>
                </mxCell>
                <mxCell id="237" value="&lt;font color=&quot;#ffffff&quot;&gt;Partition 01&lt;/font&gt;" style="rounded=1;whiteSpace=wrap;html=1;fontFamily=Tahoma;fontSize=12;fontColor=#345253;strokeWidth=2;fillColor=#345253;strokeColor=none;" parent="1" vertex="1">
                    <mxGeometry x="578" y="55" width="80" height="40" as="geometry"/>
                </mxCell>
                <mxCell id="238" value="&lt;font color=&quot;#ffffff&quot;&gt;Partition 02&lt;/font&gt;" style="rounded=1;whiteSpace=wrap;html=1;fontFamily=Tahoma;fontSize=12;fontColor=#345253;strokeWidth=2;fillColor=#345253;strokeColor=none;" parent="1" vertex="1">
                    <mxGeometry x="578" y="115" width="80" height="40" as="geometry"/>
                </mxCell>
                <mxCell id="239" value="&lt;font color=&quot;#ffffff&quot;&gt;Partition 03&lt;/font&gt;" style="rounded=1;whiteSpace=wrap;html=1;fontFamily=Tahoma;fontSize=12;fontColor=#345253;strokeWidth=2;fillColor=#345253;strokeColor=none;" parent="1" vertex="1">
                    <mxGeometry x="578" y="175" width="80" height="40" as="geometry"/>
                </mxCell>
                <mxCell id="240" value="" style="rounded=1;whiteSpace=wrap;html=1;fontFamily=Tahoma;fontSize=12;fontColor=#345253;strokeWidth=2;fillColor=#EDF2F4;strokeColor=none;" parent="1" vertex="1">
                    <mxGeometry x="563" y="330" width="110" height="190" as="geometry"/>
                </mxCell>
                <mxCell id="241" value="&lt;font color=&quot;#ffffff&quot;&gt;Partition 01&lt;/font&gt;" style="rounded=1;whiteSpace=wrap;html=1;fontFamily=Tahoma;fontSize=12;fontColor=#345253;strokeWidth=2;fillColor=#345253;strokeColor=none;" parent="1" vertex="1">
                    <mxGeometry x="578" y="345" width="80" height="40" as="geometry"/>
                </mxCell>
                <mxCell id="242" value="&lt;font color=&quot;#ffffff&quot;&gt;Partition 02&lt;/font&gt;" style="rounded=1;whiteSpace=wrap;html=1;fontFamily=Tahoma;fontSize=12;fontColor=#345253;strokeWidth=2;fillColor=#345253;strokeColor=none;" parent="1" vertex="1">
                    <mxGeometry x="578" y="405" width="80" height="40" as="geometry"/>
                </mxCell>
                <mxCell id="243" value="&lt;font color=&quot;#ffffff&quot;&gt;Partition 03&lt;/font&gt;" style="rounded=1;whiteSpace=wrap;html=1;fontFamily=Tahoma;fontSize=12;fontColor=#345253;strokeWidth=2;fillColor=#345253;strokeColor=none;" parent="1" vertex="1">
                    <mxGeometry x="578" y="465" width="80" height="40" as="geometry"/>
                </mxCell>
                <mxCell id="245" value="&lt;font color=&quot;#ffffff&quot;&gt;Partition 01&lt;/font&gt;" style="rounded=1;whiteSpace=wrap;html=1;fontFamily=Tahoma;fontSize=12;fontColor=#345253;strokeWidth=2;fillColor=#345253;strokeColor=none;" parent="1" vertex="1">
                    <mxGeometry x="758" y="200" width="80" height="40" as="geometry"/>
                </mxCell>
                <mxCell id="246" value="&lt;font color=&quot;#ffffff&quot;&gt;Partition 02&lt;/font&gt;" style="rounded=1;whiteSpace=wrap;html=1;fontFamily=Tahoma;fontSize=12;fontColor=#345253;strokeWidth=2;fillColor=#345253;strokeColor=none;" parent="1" vertex="1">
                    <mxGeometry x="758" y="260" width="80" height="40" as="geometry"/>
                </mxCell>
                <mxCell id="247" value="&lt;font color=&quot;#ffffff&quot;&gt;Partition 03&lt;/font&gt;" style="rounded=1;whiteSpace=wrap;html=1;fontFamily=Tahoma;fontSize=12;fontColor=#345253;strokeWidth=2;fillColor=#345253;strokeColor=none;" parent="1" vertex="1">
                    <mxGeometry x="758" y="320" width="80" height="40" as="geometry"/>
                </mxCell>
                <mxCell id="254" value="join with&lt;br&gt;inputs co-partitioned" style="text;html=1;strokeColor=none;fillColor=none;align=center;verticalAlign=middle;whiteSpace=wrap;rounded=0;fontFamily=Tahoma;fontSize=14;fontColor=#345253;fontStyle=2" parent="1" vertex="1">
                    <mxGeometry x="633" y="560" width="150" height="35" as="geometry"/>
                </mxCell>
                <mxCell id="258" value="&lt;b&gt;&lt;i&gt;RDD B&lt;/i&gt;&lt;/b&gt;" style="text;html=1;strokeColor=none;fillColor=none;align=center;verticalAlign=middle;whiteSpace=wrap;rounded=0;fontFamily=Tahoma;fontSize=14;fontColor=#345253;" parent="1" vertex="1">
                    <mxGeometry x="386" y="125" width="50" height="20" as="geometry"/>
                </mxCell>
                <mxCell id="259" value="&lt;b&gt;&lt;i&gt;RDD E&lt;/i&gt;&lt;/b&gt;" style="text;html=1;strokeColor=none;fillColor=none;align=center;verticalAlign=middle;whiteSpace=wrap;rounded=0;fontFamily=Tahoma;fontSize=14;fontColor=#345253;" parent="1" vertex="1">
                    <mxGeometry x="386" y="415" width="50" height="20" as="geometry"/>
                </mxCell>
                <mxCell id="260" value="&lt;b&gt;&lt;i&gt;RDD G&lt;/i&gt;&lt;/b&gt;" style="text;html=1;strokeColor=none;fillColor=none;align=center;verticalAlign=middle;whiteSpace=wrap;rounded=0;fontFamily=Tahoma;fontSize=14;fontColor=#345253;" parent="1" vertex="1">
                    <mxGeometry x="506" y="415" width="50" height="20" as="geometry"/>
                </mxCell>
                <mxCell id="261" value="&lt;b&gt;&lt;i&gt;RDD F&lt;/i&gt;&lt;/b&gt;" style="text;html=1;strokeColor=none;fillColor=none;align=center;verticalAlign=middle;whiteSpace=wrap;rounded=0;fontFamily=Tahoma;fontSize=14;fontColor=#345253;" parent="1" vertex="1">
                    <mxGeometry x="506" y="125" width="50" height="20" as="geometry"/>
                </mxCell>
                <mxCell id="262" value="&lt;b&gt;&lt;i&gt;RDD H&lt;/i&gt;&lt;/b&gt;" style="text;html=1;strokeColor=none;fillColor=none;align=center;verticalAlign=middle;whiteSpace=wrap;rounded=0;fontFamily=Tahoma;fontSize=14;fontColor=#345253;" parent="1" vertex="1">
                    <mxGeometry x="860" y="270" width="50" height="20" as="geometry"/>
                </mxCell>
                <mxCell id="263" value="&lt;b&gt;&lt;i&gt;RDD A&lt;/i&gt;&lt;/b&gt;" style="text;html=1;strokeColor=none;fillColor=none;align=center;verticalAlign=middle;whiteSpace=wrap;rounded=0;fontFamily=Tahoma;fontSize=14;fontColor=#345253;" parent="1" vertex="1">
                    <mxGeometry x="26" y="125" width="50" height="20" as="geometry"/>
                </mxCell>
                <mxCell id="264" value="&lt;b&gt;&lt;i&gt;RDD C&lt;/i&gt;&lt;/b&gt;" style="text;html=1;strokeColor=none;fillColor=none;align=center;verticalAlign=middle;whiteSpace=wrap;rounded=0;fontFamily=Tahoma;fontSize=14;fontColor=#345253;" parent="1" vertex="1">
                    <mxGeometry x="26" y="335" width="50" height="20" as="geometry"/>
                </mxCell>
                <mxCell id="265" value="&lt;b&gt;&lt;i&gt;RDD D&lt;/i&gt;&lt;/b&gt;" style="text;html=1;strokeColor=none;fillColor=none;align=center;verticalAlign=middle;whiteSpace=wrap;rounded=0;fontFamily=Tahoma;fontSize=14;fontColor=#345253;" parent="1" vertex="1">
                    <mxGeometry x="26" y="495" width="50" height="20" as="geometry"/>
                </mxCell>
                <mxCell id="204" style="edgeStyle=none;rounded=0;orthogonalLoop=1;jettySize=auto;html=1;exitX=1;exitY=0.5;exitDx=0;exitDy=0;entryX=0;entryY=0.5;entryDx=0;entryDy=0;fontFamily=Tahoma;fontSize=14;fontColor=#345253;endArrow=oval;endFill=1;strokeWidth=1;strokeColor=#999999;" parent="1" source="193" target="198" edge="1">
                    <mxGeometry relative="1" as="geometry"/>
                </mxCell>
                <mxCell id="205" style="edgeStyle=none;rounded=0;orthogonalLoop=1;jettySize=auto;html=1;entryX=0;entryY=0.5;entryDx=0;entryDy=0;fontFamily=Tahoma;fontSize=14;fontColor=#345253;endArrow=oval;endFill=1;strokeWidth=1;strokeColor=#999999;" parent="1" source="194" target="199" edge="1">
                    <mxGeometry relative="1" as="geometry"/>
                </mxCell>
                <mxCell id="206" style="edgeStyle=none;rounded=0;orthogonalLoop=1;jettySize=auto;html=1;entryX=0;entryY=0.5;entryDx=0;entryDy=0;fontFamily=Tahoma;fontSize=14;fontColor=#345253;endArrow=oval;endFill=1;strokeWidth=1;strokeColor=#999999;" parent="1" source="195" target="200" edge="1">
                    <mxGeometry relative="1" as="geometry"/>
                </mxCell>
                <mxCell id="231" style="edgeStyle=none;rounded=0;orthogonalLoop=1;jettySize=auto;html=1;exitX=1;exitY=0.5;exitDx=0;exitDy=0;entryX=0;entryY=0.5;entryDx=0;entryDy=0;fontFamily=Tahoma;fontSize=14;fontColor=#345253;endArrow=oval;endFill=1;strokeColor=#999999;strokeWidth=1;" parent="1" source="210" target="225" edge="1">
                    <mxGeometry relative="1" as="geometry"/>
                </mxCell>
                <mxCell id="232" style="edgeStyle=none;rounded=0;orthogonalLoop=1;jettySize=auto;html=1;exitX=1;exitY=0.5;exitDx=0;exitDy=0;entryX=0;entryY=0.5;entryDx=0;entryDy=0;fontFamily=Tahoma;fontSize=14;fontColor=#345253;endArrow=oval;endFill=1;strokeColor=#999999;strokeWidth=1;" parent="1" source="212" target="226" edge="1">
                    <mxGeometry relative="1" as="geometry"/>
                </mxCell>
                <mxCell id="233" style="edgeStyle=none;rounded=0;orthogonalLoop=1;jettySize=auto;html=1;exitX=1;exitY=0.5;exitDx=0;exitDy=0;entryX=0;entryY=0.5;entryDx=0;entryDy=0;fontFamily=Tahoma;fontSize=14;fontColor=#345253;endArrow=oval;endFill=1;strokeColor=#999999;strokeWidth=1;" parent="1" source="222" target="227" edge="1">
                    <mxGeometry relative="1" as="geometry"/>
                </mxCell>
                <mxCell id="234" style="edgeStyle=none;rounded=0;orthogonalLoop=1;jettySize=auto;html=1;exitX=1;exitY=0.5;exitDx=0;exitDy=0;entryX=0;entryY=0.5;entryDx=0;entryDy=0;fontFamily=Tahoma;fontSize=14;fontColor=#345253;endArrow=oval;endFill=1;strokeColor=#999999;strokeWidth=1;" parent="1" source="223" target="228" edge="1">
                    <mxGeometry relative="1" as="geometry"/>
                </mxCell>
                <mxCell id="248" style="edgeStyle=none;rounded=0;orthogonalLoop=1;jettySize=auto;html=1;exitX=1;exitY=0.5;exitDx=0;exitDy=0;entryX=0;entryY=0.5;entryDx=0;entryDy=0;fontFamily=Tahoma;fontSize=14;fontColor=#345253;endArrow=oval;endFill=1;strokeColor=#999999;strokeWidth=1;" parent="1" source="237" target="245" edge="1">
                    <mxGeometry relative="1" as="geometry"/>
                </mxCell>
                <mxCell id="249" style="edgeStyle=none;rounded=0;orthogonalLoop=1;jettySize=auto;html=1;exitX=1;exitY=0.5;exitDx=0;exitDy=0;entryX=0;entryY=0.5;entryDx=0;entryDy=0;fontFamily=Tahoma;fontSize=14;fontColor=#345253;endArrow=oval;endFill=1;strokeColor=#999999;strokeWidth=1;" parent="1" source="238" target="246" edge="1">
                    <mxGeometry relative="1" as="geometry"/>
                </mxCell>
                <mxCell id="250" style="edgeStyle=none;rounded=0;orthogonalLoop=1;jettySize=auto;html=1;exitX=1;exitY=0.5;exitDx=0;exitDy=0;entryX=0;entryY=0.5;entryDx=0;entryDy=0;fontFamily=Tahoma;fontSize=14;fontColor=#345253;endArrow=oval;endFill=1;strokeColor=#999999;strokeWidth=1;" parent="1" source="239" target="247" edge="1">
                    <mxGeometry relative="1" as="geometry"/>
                </mxCell>
                <mxCell id="251" style="edgeStyle=none;rounded=0;orthogonalLoop=1;jettySize=auto;html=1;exitX=1;exitY=0.5;exitDx=0;exitDy=0;entryX=0;entryY=0.5;entryDx=0;entryDy=0;fontFamily=Tahoma;fontSize=14;fontColor=#345253;endArrow=oval;endFill=1;strokeColor=#999999;strokeWidth=1;" parent="1" source="241" target="245" edge="1">
                    <mxGeometry relative="1" as="geometry"/>
                </mxCell>
                <mxCell id="252" style="edgeStyle=none;rounded=0;orthogonalLoop=1;jettySize=auto;html=1;exitX=1;exitY=0.5;exitDx=0;exitDy=0;entryX=0;entryY=0.5;entryDx=0;entryDy=0;fontFamily=Tahoma;fontSize=14;fontColor=#345253;endArrow=oval;endFill=1;strokeColor=#999999;strokeWidth=1;" parent="1" source="242" target="246" edge="1">
                    <mxGeometry relative="1" as="geometry"/>
                </mxCell>
                <mxCell id="253" style="edgeStyle=none;rounded=0;orthogonalLoop=1;jettySize=auto;html=1;exitX=1;exitY=0.5;exitDx=0;exitDy=0;entryX=0;entryY=0.5;entryDx=0;entryDy=0;fontFamily=Tahoma;fontSize=14;fontColor=#345253;endArrow=oval;endFill=1;strokeColor=#999999;strokeWidth=1;" parent="1" source="243" target="247" edge="1">
                    <mxGeometry relative="1" as="geometry"/>
                </mxCell>
            </root>
        </mxGraphModel>
    </diagram>
</mxfile>